<mxfile host="www.draw.io" modified="2019-11-22T09:11:31.333Z" agent="Mozilla/5.0 (Macintosh; Intel Mac OS X 10_14_6) AppleWebKit/537.36 (KHTML, like Gecko) Chrome/78.0.3904.97 Safari/537.36" etag="L0r3POhIXRVPhTw_uj45" version="12.2.9" type="github" pages="1">
  <diagram id="LP4fNm2Q-F6p-JKcf-eE" name="Page-1">
    <mxGraphModel dx="2066" dy="1114" grid="1" gridSize="10" guides="1" tooltips="1" connect="1" arrows="1" fold="1" page="1" pageScale="1" pageWidth="827" pageHeight="1169" math="0" shadow="0">
      <root>
        <mxCell id="0"/>
        <mxCell id="1" parent="0"/>
        <mxCell id="FIz1lYrmX7erdzPa_Lh_-114" value="" style="rounded=0;whiteSpace=wrap;html=1;" parent="1" vertex="1">
          <mxGeometry x="23" y="30" width="276" height="140" as="geometry"/>
        </mxCell>
        <mxCell id="FIz1lYrmX7erdzPa_Lh_-122" value="" style="rounded=0;whiteSpace=wrap;html=1;" parent="1" vertex="1">
          <mxGeometry x="36" y="50" width="147" height="106" as="geometry"/>
        </mxCell>
        <mxCell id="FIz1lYrmX7erdzPa_Lh_-10" value="" style="rounded=0;whiteSpace=wrap;html=1;fillColor=#dae8fc;strokeColor=#6c8ebf;" parent="1" vertex="1">
          <mxGeometry x="242.5" y="240" width="580" height="200" as="geometry"/>
        </mxCell>
        <mxCell id="FIz1lYrmX7erdzPa_Lh_-2" value="&lt;font style=&quot;font-size: 24px&quot;&gt;BLUE&amp;nbsp;&amp;nbsp;&lt;/font&gt;" style="text;html=1;strokeColor=none;fillColor=none;align=center;verticalAlign=middle;whiteSpace=wrap;rounded=0;" parent="1" vertex="1">
          <mxGeometry x="502.5" y="250" width="40" height="20" as="geometry"/>
        </mxCell>
        <mxCell id="FIz1lYrmX7erdzPa_Lh_-53" value="v2.0" style="text;html=1;strokeColor=none;fillColor=none;align=center;verticalAlign=middle;whiteSpace=wrap;rounded=0;" parent="1" vertex="1">
          <mxGeometry x="497.5" y="270" width="40" height="20" as="geometry"/>
        </mxCell>
        <mxCell id="FIz1lYrmX7erdzPa_Lh_-54" value="" style="shape=parallelogram;perimeter=parallelogramPerimeter;whiteSpace=wrap;html=1;fillColor=#f8cecc;strokeColor=#b85450;size=0.17777777777777778;" parent="1" vertex="1">
          <mxGeometry x="57.5" y="675" width="10" height="10" as="geometry"/>
        </mxCell>
        <mxCell id="FIz1lYrmX7erdzPa_Lh_-55" value="" style="ellipse;whiteSpace=wrap;html=1;aspect=fixed;fillColor=#d5e8d4;strokeColor=#82b366;" parent="1" vertex="1">
          <mxGeometry x="57.5" y="695" width="10" height="10" as="geometry"/>
        </mxCell>
        <mxCell id="FIz1lYrmX7erdzPa_Lh_-57" value="" style="rhombus;whiteSpace=wrap;html=1;fillColor=#e1d5e7;strokeColor=#9673a6;" parent="1" vertex="1">
          <mxGeometry x="57.5" y="715" width="10" height="11" as="geometry"/>
        </mxCell>
        <mxCell id="FIz1lYrmX7erdzPa_Lh_-63" value="UI" style="text;html=1;strokeColor=none;fillColor=none;align=center;verticalAlign=middle;whiteSpace=wrap;rounded=0;" parent="1" vertex="1">
          <mxGeometry x="77.5" y="670" width="40" height="20" as="geometry"/>
        </mxCell>
        <mxCell id="FIz1lYrmX7erdzPa_Lh_-64" value="Business Logic" style="text;html=1;strokeColor=none;fillColor=none;align=center;verticalAlign=middle;whiteSpace=wrap;rounded=0;" parent="1" vertex="1">
          <mxGeometry x="85" y="687.5" width="95" height="25" as="geometry"/>
        </mxCell>
        <mxCell id="FIz1lYrmX7erdzPa_Lh_-65" value="Integration" style="text;html=1;strokeColor=none;fillColor=none;align=center;verticalAlign=middle;whiteSpace=wrap;rounded=0;" parent="1" vertex="1">
          <mxGeometry x="72.5" y="708" width="95" height="25" as="geometry"/>
        </mxCell>
        <mxCell id="FIz1lYrmX7erdzPa_Lh_-116" value="Cases" style="text;html=1;strokeColor=none;fillColor=none;align=center;verticalAlign=middle;whiteSpace=wrap;rounded=0;" parent="1" vertex="1">
          <mxGeometry x="142.5" y="30" width="40" height="20" as="geometry"/>
        </mxCell>
        <mxCell id="FIz1lYrmX7erdzPa_Lh_-117" value="" style="ellipse;whiteSpace=wrap;html=1;aspect=fixed;fillColor=#d5e8d4;strokeColor=#82b366;" parent="1" vertex="1">
          <mxGeometry x="131" y="73" width="30" height="30" as="geometry"/>
        </mxCell>
        <mxCell id="FIz1lYrmX7erdzPa_Lh_-118" value="" style="ellipse;whiteSpace=wrap;html=1;aspect=fixed;fillColor=#d5e8d4;strokeColor=#82b366;" parent="1" vertex="1">
          <mxGeometry x="54" y="73" width="30" height="30" as="geometry"/>
        </mxCell>
        <mxCell id="FIz1lYrmX7erdzPa_Lh_-119" value="" style="ellipse;whiteSpace=wrap;html=1;aspect=fixed;fillColor=#d5e8d4;strokeColor=#82b366;" parent="1" vertex="1">
          <mxGeometry x="92.5" y="73" width="30" height="30" as="geometry"/>
        </mxCell>
        <mxCell id="FIz1lYrmX7erdzPa_Lh_-120" value="" style="rhombus;whiteSpace=wrap;html=1;fillColor=#e1d5e7;strokeColor=#9673a6;" parent="1" vertex="1">
          <mxGeometry x="92.5" y="115" width="30" height="35" as="geometry"/>
        </mxCell>
        <mxCell id="FIz1lYrmX7erdzPa_Lh_-123" value="API" style="text;html=1;strokeColor=none;fillColor=none;align=center;verticalAlign=middle;whiteSpace=wrap;rounded=0;" parent="1" vertex="1">
          <mxGeometry x="70" y="50" width="65" height="20" as="geometry"/>
        </mxCell>
        <mxCell id="FIz1lYrmX7erdzPa_Lh_-124" value="" style="rounded=0;whiteSpace=wrap;html=1;" parent="1" vertex="1">
          <mxGeometry x="209" y="48" width="75" height="108" as="geometry"/>
        </mxCell>
        <mxCell id="FIz1lYrmX7erdzPa_Lh_-125" value="UI" style="text;html=1;strokeColor=none;fillColor=none;align=center;verticalAlign=middle;whiteSpace=wrap;rounded=0;" parent="1" vertex="1">
          <mxGeometry x="210" y="50" width="65" height="20" as="geometry"/>
        </mxCell>
        <mxCell id="FIz1lYrmX7erdzPa_Lh_-126" value="" style="shape=parallelogram;perimeter=parallelogramPerimeter;whiteSpace=wrap;html=1;fillColor=#f8cecc;strokeColor=#b85450;" parent="1" vertex="1">
          <mxGeometry x="230" y="77" width="30" height="26" as="geometry"/>
        </mxCell>
        <mxCell id="FIz1lYrmX7erdzPa_Lh_-127" value="" style="shape=parallelogram;perimeter=parallelogramPerimeter;whiteSpace=wrap;html=1;fillColor=#f8cecc;strokeColor=#b85450;" parent="1" vertex="1">
          <mxGeometry x="228.5" y="114" width="30" height="26" as="geometry"/>
        </mxCell>
        <mxCell id="FIz1lYrmX7erdzPa_Lh_-204" style="edgeStyle=orthogonalEdgeStyle;rounded=0;orthogonalLoop=1;jettySize=auto;html=1;exitX=0.5;exitY=0;exitDx=0;exitDy=0;" parent="1" source="FIz1lYrmX7erdzPa_Lh_-128" target="FIz1lYrmX7erdzPa_Lh_-114" edge="1">
          <mxGeometry relative="1" as="geometry">
            <Array as="points">
              <mxPoint x="365" y="210"/>
              <mxPoint x="161" y="210"/>
            </Array>
          </mxGeometry>
        </mxCell>
        <mxCell id="FIz1lYrmX7erdzPa_Lh_-128" value="Cases" style="rounded=0;whiteSpace=wrap;html=1;" parent="1" vertex="1">
          <mxGeometry x="292.5" y="300" width="145" height="30" as="geometry"/>
        </mxCell>
        <mxCell id="FIz1lYrmX7erdzPa_Lh_-129" value="" style="rounded=0;whiteSpace=wrap;html=1;" parent="1" vertex="1">
          <mxGeometry x="356.5" y="33" width="276" height="140" as="geometry"/>
        </mxCell>
        <mxCell id="FIz1lYrmX7erdzPa_Lh_-130" value="" style="rounded=0;whiteSpace=wrap;html=1;" parent="1" vertex="1">
          <mxGeometry x="369.5" y="53" width="147" height="106" as="geometry"/>
        </mxCell>
        <mxCell id="FIz1lYrmX7erdzPa_Lh_-131" value="Orders" style="text;html=1;strokeColor=none;fillColor=none;align=center;verticalAlign=middle;whiteSpace=wrap;rounded=0;" parent="1" vertex="1">
          <mxGeometry x="476" y="33" width="40" height="20" as="geometry"/>
        </mxCell>
        <mxCell id="FIz1lYrmX7erdzPa_Lh_-133" value="" style="ellipse;whiteSpace=wrap;html=1;aspect=fixed;fillColor=#d5e8d4;strokeColor=#82b366;" parent="1" vertex="1">
          <mxGeometry x="426" y="76" width="30" height="30" as="geometry"/>
        </mxCell>
        <mxCell id="FIz1lYrmX7erdzPa_Lh_-135" value="" style="rhombus;whiteSpace=wrap;html=1;fillColor=#e1d5e7;strokeColor=#9673a6;" parent="1" vertex="1">
          <mxGeometry x="392" y="112" width="30" height="35" as="geometry"/>
        </mxCell>
        <mxCell id="FIz1lYrmX7erdzPa_Lh_-136" value="API" style="text;html=1;strokeColor=none;fillColor=none;align=center;verticalAlign=middle;whiteSpace=wrap;rounded=0;" parent="1" vertex="1">
          <mxGeometry x="403.5" y="53" width="65" height="20" as="geometry"/>
        </mxCell>
        <mxCell id="FIz1lYrmX7erdzPa_Lh_-137" value="" style="rounded=0;whiteSpace=wrap;html=1;" parent="1" vertex="1">
          <mxGeometry x="542.5" y="51" width="75" height="108" as="geometry"/>
        </mxCell>
        <mxCell id="FIz1lYrmX7erdzPa_Lh_-138" value="UI" style="text;html=1;strokeColor=none;fillColor=none;align=center;verticalAlign=middle;whiteSpace=wrap;rounded=0;" parent="1" vertex="1">
          <mxGeometry x="543.5" y="53" width="65" height="20" as="geometry"/>
        </mxCell>
        <mxCell id="FIz1lYrmX7erdzPa_Lh_-139" value="" style="shape=parallelogram;perimeter=parallelogramPerimeter;whiteSpace=wrap;html=1;fillColor=#f8cecc;strokeColor=#b85450;" parent="1" vertex="1">
          <mxGeometry x="563.5" y="80" width="30" height="26" as="geometry"/>
        </mxCell>
        <mxCell id="FIz1lYrmX7erdzPa_Lh_-140" value="" style="shape=parallelogram;perimeter=parallelogramPerimeter;whiteSpace=wrap;html=1;fillColor=#f8cecc;strokeColor=#b85450;" parent="1" vertex="1">
          <mxGeometry x="562" y="117" width="30" height="26" as="geometry"/>
        </mxCell>
        <mxCell id="FIz1lYrmX7erdzPa_Lh_-141" value="" style="rhombus;whiteSpace=wrap;html=1;fillColor=#e1d5e7;strokeColor=#9673a6;" parent="1" vertex="1">
          <mxGeometry x="462" y="112" width="30" height="35" as="geometry"/>
        </mxCell>
        <mxCell id="FIz1lYrmX7erdzPa_Lh_-205" style="edgeStyle=orthogonalEdgeStyle;rounded=0;orthogonalLoop=1;jettySize=auto;html=1;exitX=0.5;exitY=0;exitDx=0;exitDy=0;entryX=0.5;entryY=1;entryDx=0;entryDy=0;" parent="1" source="FIz1lYrmX7erdzPa_Lh_-142" target="FIz1lYrmX7erdzPa_Lh_-129" edge="1">
          <mxGeometry relative="1" as="geometry">
            <Array as="points">
              <mxPoint x="560" y="300"/>
              <mxPoint x="560" y="210"/>
              <mxPoint x="495" y="210"/>
            </Array>
          </mxGeometry>
        </mxCell>
        <mxCell id="FIz1lYrmX7erdzPa_Lh_-142" value="Orders" style="rounded=0;whiteSpace=wrap;html=1;" parent="1" vertex="1">
          <mxGeometry x="460.5" y="300" width="145" height="30" as="geometry"/>
        </mxCell>
        <mxCell id="FIz1lYrmX7erdzPa_Lh_-143" value="" style="rounded=0;whiteSpace=wrap;html=1;" parent="1" vertex="1">
          <mxGeometry x="684.5" y="32" width="276" height="140" as="geometry"/>
        </mxCell>
        <mxCell id="FIz1lYrmX7erdzPa_Lh_-144" value="" style="rounded=0;whiteSpace=wrap;html=1;" parent="1" vertex="1">
          <mxGeometry x="697.5" y="52" width="147" height="106" as="geometry"/>
        </mxCell>
        <mxCell id="FIz1lYrmX7erdzPa_Lh_-145" value="Emails" style="text;html=1;strokeColor=none;fillColor=none;align=center;verticalAlign=middle;whiteSpace=wrap;rounded=0;" parent="1" vertex="1">
          <mxGeometry x="804" y="32" width="40" height="20" as="geometry"/>
        </mxCell>
        <mxCell id="FIz1lYrmX7erdzPa_Lh_-146" value="" style="ellipse;whiteSpace=wrap;html=1;aspect=fixed;fillColor=#d5e8d4;strokeColor=#82b366;" parent="1" vertex="1">
          <mxGeometry x="775" y="71" width="30" height="30" as="geometry"/>
        </mxCell>
        <mxCell id="FIz1lYrmX7erdzPa_Lh_-147" value="" style="rhombus;whiteSpace=wrap;html=1;fillColor=#e1d5e7;strokeColor=#9673a6;" parent="1" vertex="1">
          <mxGeometry x="749" y="111.5" width="30" height="35" as="geometry"/>
        </mxCell>
        <mxCell id="FIz1lYrmX7erdzPa_Lh_-148" value="API" style="text;html=1;strokeColor=none;fillColor=none;align=center;verticalAlign=middle;whiteSpace=wrap;rounded=0;" parent="1" vertex="1">
          <mxGeometry x="731.5" y="52" width="65" height="20" as="geometry"/>
        </mxCell>
        <mxCell id="FIz1lYrmX7erdzPa_Lh_-149" value="" style="rounded=0;whiteSpace=wrap;html=1;" parent="1" vertex="1">
          <mxGeometry x="870.5" y="50" width="75" height="108" as="geometry"/>
        </mxCell>
        <mxCell id="FIz1lYrmX7erdzPa_Lh_-150" value="UI" style="text;html=1;strokeColor=none;fillColor=none;align=center;verticalAlign=middle;whiteSpace=wrap;rounded=0;" parent="1" vertex="1">
          <mxGeometry x="871.5" y="52" width="65" height="20" as="geometry"/>
        </mxCell>
        <mxCell id="FIz1lYrmX7erdzPa_Lh_-151" value="" style="shape=parallelogram;perimeter=parallelogramPerimeter;whiteSpace=wrap;html=1;fillColor=#f8cecc;strokeColor=#b85450;" parent="1" vertex="1">
          <mxGeometry x="891.5" y="79" width="30" height="26" as="geometry"/>
        </mxCell>
        <mxCell id="FIz1lYrmX7erdzPa_Lh_-152" value="" style="shape=parallelogram;perimeter=parallelogramPerimeter;whiteSpace=wrap;html=1;fillColor=#f8cecc;strokeColor=#b85450;" parent="1" vertex="1">
          <mxGeometry x="890" y="116" width="30" height="26" as="geometry"/>
        </mxCell>
        <mxCell id="FIz1lYrmX7erdzPa_Lh_-154" value="" style="ellipse;whiteSpace=wrap;html=1;aspect=fixed;fillColor=#d5e8d4;strokeColor=#82b366;" parent="1" vertex="1">
          <mxGeometry x="731.5" y="72" width="30" height="30" as="geometry"/>
        </mxCell>
        <mxCell id="FIz1lYrmX7erdzPa_Lh_-206" style="edgeStyle=orthogonalEdgeStyle;rounded=0;orthogonalLoop=1;jettySize=auto;html=1;" parent="1" source="FIz1lYrmX7erdzPa_Lh_-155" target="FIz1lYrmX7erdzPa_Lh_-143" edge="1">
          <mxGeometry relative="1" as="geometry">
            <Array as="points">
              <mxPoint x="701" y="210"/>
              <mxPoint x="823" y="210"/>
            </Array>
          </mxGeometry>
        </mxCell>
        <mxCell id="FIz1lYrmX7erdzPa_Lh_-155" value="Emails" style="rounded=0;whiteSpace=wrap;html=1;" parent="1" vertex="1">
          <mxGeometry x="628.5" y="300" width="145" height="30" as="geometry"/>
        </mxCell>
        <mxCell id="FIz1lYrmX7erdzPa_Lh_-208" style="edgeStyle=orthogonalEdgeStyle;rounded=0;orthogonalLoop=1;jettySize=auto;html=1;entryX=0.5;entryY=0;entryDx=0;entryDy=0;" parent="1" source="FIz1lYrmX7erdzPa_Lh_-156" target="FIz1lYrmX7erdzPa_Lh_-161" edge="1">
          <mxGeometry relative="1" as="geometry">
            <Array as="points">
              <mxPoint x="365" y="410"/>
              <mxPoint x="176" y="410"/>
            </Array>
          </mxGeometry>
        </mxCell>
        <mxCell id="FIz1lYrmX7erdzPa_Lh_-156" value="Card Gifts" style="rounded=0;whiteSpace=wrap;html=1;" parent="1" vertex="1">
          <mxGeometry x="292.5" y="360" width="145" height="30" as="geometry"/>
        </mxCell>
        <mxCell id="FIz1lYrmX7erdzPa_Lh_-209" style="edgeStyle=orthogonalEdgeStyle;rounded=0;orthogonalLoop=1;jettySize=auto;html=1;" parent="1" source="FIz1lYrmX7erdzPa_Lh_-157" target="FIz1lYrmX7erdzPa_Lh_-182" edge="1">
          <mxGeometry relative="1" as="geometry">
            <Array as="points">
              <mxPoint x="535" y="420"/>
              <mxPoint x="498" y="420"/>
            </Array>
          </mxGeometry>
        </mxCell>
        <mxCell id="FIz1lYrmX7erdzPa_Lh_-157" value="Solutions" style="rounded=0;whiteSpace=wrap;html=1;" parent="1" vertex="1">
          <mxGeometry x="462.5" y="360" width="145" height="30" as="geometry"/>
        </mxCell>
        <mxCell id="FIz1lYrmX7erdzPa_Lh_-210" style="edgeStyle=orthogonalEdgeStyle;rounded=0;orthogonalLoop=1;jettySize=auto;html=1;entryX=0.5;entryY=0;entryDx=0;entryDy=0;" parent="1" source="FIz1lYrmX7erdzPa_Lh_-158" target="FIz1lYrmX7erdzPa_Lh_-191" edge="1">
          <mxGeometry relative="1" as="geometry">
            <Array as="points">
              <mxPoint x="705" y="420"/>
              <mxPoint x="836" y="420"/>
            </Array>
          </mxGeometry>
        </mxCell>
        <mxCell id="FIz1lYrmX7erdzPa_Lh_-158" value="Subscriptions" style="rounded=0;whiteSpace=wrap;html=1;" parent="1" vertex="1">
          <mxGeometry x="632.5" y="360" width="145" height="30" as="geometry"/>
        </mxCell>
        <mxCell id="FIz1lYrmX7erdzPa_Lh_-159" value="" style="rounded=0;whiteSpace=wrap;html=1;" parent="1" vertex="1">
          <mxGeometry x="36" y="490" width="276" height="140" as="geometry"/>
        </mxCell>
        <mxCell id="FIz1lYrmX7erdzPa_Lh_-160" value="" style="rounded=0;whiteSpace=wrap;html=1;" parent="1" vertex="1">
          <mxGeometry x="49" y="510" width="147" height="106" as="geometry"/>
        </mxCell>
        <mxCell id="FIz1lYrmX7erdzPa_Lh_-161" value="Card Gifts" style="text;html=1;strokeColor=none;fillColor=none;align=center;verticalAlign=middle;whiteSpace=wrap;rounded=0;" parent="1" vertex="1">
          <mxGeometry x="156" y="490" width="85" height="20" as="geometry"/>
        </mxCell>
        <mxCell id="FIz1lYrmX7erdzPa_Lh_-162" value="" style="ellipse;whiteSpace=wrap;html=1;aspect=fixed;fillColor=#d5e8d4;strokeColor=#82b366;" parent="1" vertex="1">
          <mxGeometry x="126.5" y="529" width="30" height="30" as="geometry"/>
        </mxCell>
        <mxCell id="FIz1lYrmX7erdzPa_Lh_-163" value="" style="rhombus;whiteSpace=wrap;html=1;fillColor=#e1d5e7;strokeColor=#9673a6;" parent="1" vertex="1">
          <mxGeometry x="100.5" y="569.5" width="30" height="35" as="geometry"/>
        </mxCell>
        <mxCell id="FIz1lYrmX7erdzPa_Lh_-164" value="API" style="text;html=1;strokeColor=none;fillColor=none;align=center;verticalAlign=middle;whiteSpace=wrap;rounded=0;" parent="1" vertex="1">
          <mxGeometry x="83" y="510" width="65" height="20" as="geometry"/>
        </mxCell>
        <mxCell id="FIz1lYrmX7erdzPa_Lh_-165" value="" style="rounded=0;whiteSpace=wrap;html=1;" parent="1" vertex="1">
          <mxGeometry x="222" y="508" width="75" height="108" as="geometry"/>
        </mxCell>
        <mxCell id="FIz1lYrmX7erdzPa_Lh_-166" value="UI" style="text;html=1;strokeColor=none;fillColor=none;align=center;verticalAlign=middle;whiteSpace=wrap;rounded=0;" parent="1" vertex="1">
          <mxGeometry x="223" y="510" width="65" height="20" as="geometry"/>
        </mxCell>
        <mxCell id="FIz1lYrmX7erdzPa_Lh_-167" value="" style="shape=parallelogram;perimeter=parallelogramPerimeter;whiteSpace=wrap;html=1;fillColor=#f8cecc;strokeColor=#b85450;" parent="1" vertex="1">
          <mxGeometry x="243" y="537" width="30" height="26" as="geometry"/>
        </mxCell>
        <mxCell id="FIz1lYrmX7erdzPa_Lh_-169" value="" style="ellipse;whiteSpace=wrap;html=1;aspect=fixed;fillColor=#d5e8d4;strokeColor=#82b366;" parent="1" vertex="1">
          <mxGeometry x="83" y="530" width="30" height="30" as="geometry"/>
        </mxCell>
        <mxCell id="FIz1lYrmX7erdzPa_Lh_-180" value="" style="rounded=0;whiteSpace=wrap;html=1;" parent="1" vertex="1">
          <mxGeometry x="358" y="492" width="276" height="140" as="geometry"/>
        </mxCell>
        <mxCell id="FIz1lYrmX7erdzPa_Lh_-181" value="" style="rounded=0;whiteSpace=wrap;html=1;" parent="1" vertex="1">
          <mxGeometry x="371" y="512" width="147" height="106" as="geometry"/>
        </mxCell>
        <mxCell id="FIz1lYrmX7erdzPa_Lh_-182" value="Solutions" style="text;html=1;strokeColor=none;fillColor=none;align=center;verticalAlign=middle;whiteSpace=wrap;rounded=0;" parent="1" vertex="1">
          <mxGeometry x="477.5" y="492" width="40" height="20" as="geometry"/>
        </mxCell>
        <mxCell id="FIz1lYrmX7erdzPa_Lh_-183" value="" style="ellipse;whiteSpace=wrap;html=1;aspect=fixed;fillColor=#d5e8d4;strokeColor=#82b366;" parent="1" vertex="1">
          <mxGeometry x="448.5" y="531" width="30" height="30" as="geometry"/>
        </mxCell>
        <mxCell id="FIz1lYrmX7erdzPa_Lh_-184" value="" style="rhombus;whiteSpace=wrap;html=1;fillColor=#e1d5e7;strokeColor=#9673a6;" parent="1" vertex="1">
          <mxGeometry x="404.5" y="572" width="30" height="35" as="geometry"/>
        </mxCell>
        <mxCell id="FIz1lYrmX7erdzPa_Lh_-185" value="API" style="text;html=1;strokeColor=none;fillColor=none;align=center;verticalAlign=middle;whiteSpace=wrap;rounded=0;" parent="1" vertex="1">
          <mxGeometry x="405" y="512" width="65" height="20" as="geometry"/>
        </mxCell>
        <mxCell id="FIz1lYrmX7erdzPa_Lh_-186" value="" style="rounded=0;whiteSpace=wrap;html=1;" parent="1" vertex="1">
          <mxGeometry x="544" y="510" width="75" height="108" as="geometry"/>
        </mxCell>
        <mxCell id="FIz1lYrmX7erdzPa_Lh_-187" value="UI" style="text;html=1;strokeColor=none;fillColor=none;align=center;verticalAlign=middle;whiteSpace=wrap;rounded=0;" parent="1" vertex="1">
          <mxGeometry x="545" y="512" width="65" height="20" as="geometry"/>
        </mxCell>
        <mxCell id="FIz1lYrmX7erdzPa_Lh_-188" value="" style="shape=parallelogram;perimeter=parallelogramPerimeter;whiteSpace=wrap;html=1;fillColor=#f8cecc;strokeColor=#b85450;" parent="1" vertex="1">
          <mxGeometry x="565" y="539" width="30" height="26" as="geometry"/>
        </mxCell>
        <mxCell id="FIz1lYrmX7erdzPa_Lh_-189" value="" style="ellipse;whiteSpace=wrap;html=1;aspect=fixed;fillColor=#d5e8d4;strokeColor=#82b366;" parent="1" vertex="1">
          <mxGeometry x="405" y="532" width="30" height="30" as="geometry"/>
        </mxCell>
        <mxCell id="FIz1lYrmX7erdzPa_Lh_-190" value="" style="rhombus;whiteSpace=wrap;html=1;fillColor=#e1d5e7;strokeColor=#9673a6;" parent="1" vertex="1">
          <mxGeometry x="448.5" y="572" width="30" height="35" as="geometry"/>
        </mxCell>
        <mxCell id="FIz1lYrmX7erdzPa_Lh_-191" value="" style="rounded=0;whiteSpace=wrap;html=1;" parent="1" vertex="1">
          <mxGeometry x="697.5" y="492" width="276" height="140" as="geometry"/>
        </mxCell>
        <mxCell id="FIz1lYrmX7erdzPa_Lh_-192" value="" style="rounded=0;whiteSpace=wrap;html=1;" parent="1" vertex="1">
          <mxGeometry x="710.5" y="512" width="147" height="106" as="geometry"/>
        </mxCell>
        <mxCell id="FIz1lYrmX7erdzPa_Lh_-193" value="Subscriptions" style="text;html=1;strokeColor=none;fillColor=none;align=center;verticalAlign=middle;whiteSpace=wrap;rounded=0;" parent="1" vertex="1">
          <mxGeometry x="817" y="492" width="40" height="20" as="geometry"/>
        </mxCell>
        <mxCell id="FIz1lYrmX7erdzPa_Lh_-195" value="" style="rhombus;whiteSpace=wrap;html=1;fillColor=#e1d5e7;strokeColor=#9673a6;" parent="1" vertex="1">
          <mxGeometry x="744" y="572" width="30" height="35" as="geometry"/>
        </mxCell>
        <mxCell id="FIz1lYrmX7erdzPa_Lh_-196" value="API" style="text;html=1;strokeColor=none;fillColor=none;align=center;verticalAlign=middle;whiteSpace=wrap;rounded=0;" parent="1" vertex="1">
          <mxGeometry x="744.5" y="512" width="65" height="20" as="geometry"/>
        </mxCell>
        <mxCell id="FIz1lYrmX7erdzPa_Lh_-197" value="" style="rounded=0;whiteSpace=wrap;html=1;" parent="1" vertex="1">
          <mxGeometry x="883.5" y="510" width="75" height="108" as="geometry"/>
        </mxCell>
        <mxCell id="FIz1lYrmX7erdzPa_Lh_-198" value="UI" style="text;html=1;strokeColor=none;fillColor=none;align=center;verticalAlign=middle;whiteSpace=wrap;rounded=0;" parent="1" vertex="1">
          <mxGeometry x="884.5" y="512" width="65" height="20" as="geometry"/>
        </mxCell>
        <mxCell id="FIz1lYrmX7erdzPa_Lh_-199" value="" style="shape=parallelogram;perimeter=parallelogramPerimeter;whiteSpace=wrap;html=1;fillColor=#f8cecc;strokeColor=#b85450;" parent="1" vertex="1">
          <mxGeometry x="904.5" y="539" width="30" height="26" as="geometry"/>
        </mxCell>
        <mxCell id="FIz1lYrmX7erdzPa_Lh_-200" value="" style="ellipse;whiteSpace=wrap;html=1;aspect=fixed;fillColor=#d5e8d4;strokeColor=#82b366;" parent="1" vertex="1">
          <mxGeometry x="744.5" y="532" width="30" height="30" as="geometry"/>
        </mxCell>
        <mxCell id="FIz1lYrmX7erdzPa_Lh_-213" style="edgeStyle=orthogonalEdgeStyle;rounded=0;orthogonalLoop=1;jettySize=auto;html=1;" parent="1" source="FIz1lYrmX7erdzPa_Lh_-211" target="FIz1lYrmX7erdzPa_Lh_-122" edge="1">
          <mxGeometry relative="1" as="geometry"/>
        </mxCell>
        <mxCell id="FIz1lYrmX7erdzPa_Lh_-211" value="bol.com&lt;br&gt;service" style="whiteSpace=wrap;html=1;aspect=fixed;fillColor=#0050ef;strokeColor=#001DBC;fontColor=#ffffff;" parent="1" vertex="1">
          <mxGeometry x="67" y="239" width="61" height="61" as="geometry"/>
        </mxCell>
        <mxCell id="FIz1lYrmX7erdzPa_Lh_-216" style="edgeStyle=orthogonalEdgeStyle;rounded=0;orthogonalLoop=1;jettySize=auto;html=1;" parent="1" source="FIz1lYrmX7erdzPa_Lh_-212" target="FIz1lYrmX7erdzPa_Lh_-164" edge="1">
          <mxGeometry relative="1" as="geometry"/>
        </mxCell>
        <mxCell id="FIz1lYrmX7erdzPa_Lh_-212" value="3rd party&lt;br&gt;service" style="whiteSpace=wrap;html=1;aspect=fixed;fillColor=#f0a30a;strokeColor=#BD7000;fontColor=#ffffff;" parent="1" vertex="1">
          <mxGeometry x="65.5" y="330" width="61" height="61" as="geometry"/>
        </mxCell>
        <mxCell id="FIz1lYrmX7erdzPa_Lh_-215" style="edgeStyle=orthogonalEdgeStyle;rounded=0;orthogonalLoop=1;jettySize=auto;html=1;entryX=1.002;entryY=0.393;entryDx=0;entryDy=0;entryPerimeter=0;" parent="1" source="FIz1lYrmX7erdzPa_Lh_-214" target="FIz1lYrmX7erdzPa_Lh_-143" edge="1">
          <mxGeometry relative="1" as="geometry">
            <Array as="points">
              <mxPoint x="919" y="206"/>
              <mxPoint x="1020" y="206"/>
              <mxPoint x="1020" y="87"/>
            </Array>
          </mxGeometry>
        </mxCell>
        <mxCell id="FIz1lYrmX7erdzPa_Lh_-214" value="bol.com&lt;br&gt;service" style="whiteSpace=wrap;html=1;aspect=fixed;fillColor=#0050ef;strokeColor=#001DBC;fontColor=#ffffff;" parent="1" vertex="1">
          <mxGeometry x="888.5" y="240" width="61" height="61" as="geometry"/>
        </mxCell>
      </root>
    </mxGraphModel>
  </diagram>
</mxfile>
